<?xml version="1.0" encoding="UTF-8" standalone="no"?>
<svg
   xmlns:dc="http://purl.org/dc/elements/1.1/"
   xmlns:cc="http://creativecommons.org/ns#"
   xmlns:rdf="http://www.w3.org/1999/02/22-rdf-syntax-ns#"
   xmlns:svg="http://www.w3.org/2000/svg"
   xmlns="http://www.w3.org/2000/svg"
   xmlns:sodipodi="http://sodipodi.sourceforge.net/DTD/sodipodi-0.dtd"
   xmlns:inkscape="http://www.inkscape.org/namespaces/inkscape"
   width="1195pt"
   height="671pt"
   viewBox="0 0 1195 671"
   version="1.1"
   id="svg44"
   sodipodi:docname="fixations_moteurs_ajuste.svg"
   inkscape:version="1.0.2-2 (e86c870879, 2021-01-15)">
  <metadata
     id="metadata48">
    <rdf:RDF>
      <cc:Work
         rdf:about="">
        <dc:format>image/svg+xml</dc:format>
        <dc:type
           rdf:resource="http://purl.org/dc/dcmitype/StillImage" />
      </cc:Work>
    </rdf:RDF>
  </metadata>
  <sodipodi:namedview
     pagecolor="#ffffff"
     bordercolor="#666666"
     borderopacity="1"
     objecttolerance="10"
     gridtolerance="10"
     guidetolerance="10"
     inkscape:pageopacity="0"
     inkscape:pageshadow="2"
     inkscape:window-width="1366"
     inkscape:window-height="713"
     id="namedview46"
     showgrid="false"
     inkscape:zoom="3.5660944"
     inkscape:cx="830.66643"
     inkscape:cy="234.27716"
     inkscape:window-x="-8"
     inkscape:window-y="-8"
     inkscape:window-maximized="1"
     inkscape:current-layer="svg44" />
  <title
     id="title2">fixations_moteurs_ajuste</title>
  <desc
     id="desc4">
Creator: GL2PS 1.4.3, (C) 1999-2020 C. Geuzaine
For: Gmsh
CreationDate: Wed Dec 08 17:35:09 2021
</desc>
  <defs
     id="defs6" />
  <g
     id="g42"
     transform="matrix(0.41340877,0,0,0.41340877,329.81898,55.641662)"
     style="stroke:#fe0000;stroke-width:0.687551;stroke-miterlimit:4;stroke-dasharray:none;stroke-opacity:1;">
    <polyline
       fill="none"
       stroke="#0000ff"
       stroke-width="2"
       stroke-linecap="butt"
       stroke-linejoin="miter"
       points="563.265,575.143 563.265,95.8572 631.735,95.8572 631.735,575.143 563.265,575.143"
       id="polyline8"
       style="stroke:#fe0000;stroke-width:0.687551;stroke-miterlimit:4;stroke-dasharray:none;stroke-opacity:1;" />
    <polyline
       fill="none"
       stroke="#0000ff"
       stroke-width="2"
       stroke-linecap="butt"
       stroke-linejoin="miter"
       points="580.383,164.327 580.383,133.515 614.617,133.515 614.617,164.327 580.383,164.327"
       id="polyline10"
       style="stroke:#fe0000;stroke-width:0.687551;stroke-miterlimit:4;stroke-dasharray:none;stroke-opacity:1;" />
    <polyline
       fill="none"
       stroke="#0000ff"
       stroke-width="2"
       stroke-linecap="butt"
       stroke-linejoin="miter"
       points="580.383,229.372 580.383,198.561 614.617,198.561 614.617,229.372 580.383,229.372"
       id="polyline12"
       style="stroke:#fe0000;stroke-width:0.687551;stroke-miterlimit:4;stroke-dasharray:none;stroke-opacity:1;" />
    <polyline
       fill="none"
       stroke="#0000ff"
       stroke-width="2"
       stroke-linecap="butt"
       stroke-linejoin="miter"
       points="587.23,540.908 587.145,539.837 586.894,538.792 586.483,537.8 585.922,536.884 585.224,536.067 584.407,535.369 583.491,534.807 582.498,534.396 581.454,534.146 580.383,534.061 579.312,534.146 578.267,534.396 577.274,534.807 576.358,535.369 575.541,536.067 574.843,536.884 574.282,537.8 573.871,538.792 573.62,539.837 573.536,540.908 573.62,541.979 573.871,543.024 574.282,544.017 574.843,544.933 575.541,545.75 576.358,546.447 577.274,547.009 578.267,547.42 579.312,547.671 580.383,547.755 581.454,547.671 582.498,547.42 583.491,547.009 584.407,546.447 585.224,545.75 585.922,544.933 586.483,544.017 586.894,543.024 587.145,541.979 587.23,540.908"
       id="polyline14"
       style="stroke:#fe0000;stroke-width:0.687551;stroke-miterlimit:4;stroke-dasharray:none;stroke-opacity:1;" />
    <polyline
       fill="none"
       stroke="#0000ff"
       stroke-width="2"
       stroke-linecap="butt"
       stroke-linejoin="miter"
       points="621.464,540.908 621.38,539.837 621.129,538.792 620.718,537.8 620.157,536.884 619.459,536.067 618.642,535.369 617.726,534.807 616.733,534.396 615.688,534.146 614.617,534.061 613.546,534.146 612.502,534.396 611.509,534.807 610.593,535.369 609.776,536.067 609.078,536.884 608.517,537.8 608.106,538.792 607.855,539.837 607.77,540.908 607.855,541.979 608.106,543.024 608.517,544.017 609.078,544.933 609.776,545.75 610.593,546.447 611.509,547.009 612.502,547.42 613.546,547.671 614.617,547.755 615.688,547.671 616.733,547.42 617.726,547.009 618.642,546.447 619.459,545.75 620.157,544.933 620.718,544.017 621.129,543.024 621.38,541.979 621.464,540.908"
       id="polyline16"
       style="stroke:#fe0000;stroke-width:0.687551;stroke-miterlimit:4;stroke-dasharray:none;stroke-opacity:1;" />
    <polyline
       fill="none"
       stroke="#0000ff"
       stroke-width="2"
       stroke-linecap="butt"
       stroke-linejoin="miter"
       points="587.23,506.673 587.145,505.602 586.894,504.558 586.483,503.565 585.922,502.649 585.224,501.832 584.407,501.134 583.491,500.573 582.498,500.162 581.454,499.911 580.383,499.827 579.312,499.911 578.267,500.162 577.274,500.573 576.358,501.134 575.541,501.832 574.843,502.649 574.282,503.565 573.871,504.558 573.62,505.602 573.536,506.673 573.62,507.745 573.871,508.789 574.282,509.782 574.843,510.698 575.541,511.515 576.358,512.213 577.274,512.774 578.267,513.185 579.312,513.436 580.383,513.52 581.454,513.436 582.498,513.185 583.491,512.774 584.407,512.213 585.224,511.515 585.922,510.698 586.483,509.782 586.894,508.789 587.145,507.745 587.23,506.673"
       id="polyline18"
       style="stroke:#fe0000;stroke-width:0.687551;stroke-miterlimit:4;stroke-dasharray:none;stroke-opacity:1;" />
    <polyline
       fill="none"
       stroke="#0000ff"
       stroke-width="2"
       stroke-linecap="butt"
       stroke-linejoin="miter"
       points="621.464,506.673 621.38,505.602 621.129,504.558 620.718,503.565 620.157,502.649 619.459,501.832 618.642,501.134 617.726,500.573 616.733,500.162 615.688,499.911 614.617,499.827 613.546,499.911 612.502,500.162 611.509,500.573 610.593,501.134 609.776,501.832 609.078,502.649 608.517,503.565 608.106,504.558 607.855,505.602 607.77,506.673 607.855,507.745 608.106,508.789 608.517,509.782 609.078,510.698 609.776,511.515 610.593,512.213 611.509,512.774 612.502,513.185 613.546,513.436 614.617,513.52 615.688,513.436 616.733,513.185 617.726,512.774 618.642,512.213 619.459,511.515 620.157,510.698 620.718,509.782 621.129,508.789 621.38,507.745 621.464,506.673"
       id="polyline20"
       style="stroke:#fe0000;stroke-width:0.687551;stroke-miterlimit:4;stroke-dasharray:none;stroke-opacity:1;" />
    <polyline
       fill="none"
       stroke="#0000ff"
       stroke-width="2"
       stroke-linecap="butt"
       stroke-linejoin="miter"
       points="587.23,472.439 587.145,471.368 586.894,470.323 586.483,469.33 585.922,468.414 585.224,467.597 584.407,466.899 583.491,466.338 582.498,465.927 581.454,465.676 580.383,465.592 579.312,465.676 578.267,465.927 577.274,466.338 576.358,466.899 575.541,467.597 574.843,468.414 574.282,469.33 573.871,470.323 573.62,471.368 573.536,472.439 573.62,473.51 573.871,474.555 574.282,475.547 574.843,476.463 575.541,477.28 576.358,477.978 577.274,478.539 578.267,478.951 579.312,479.201 580.383,479.286 581.454,479.201 582.498,478.951 583.491,478.539 584.407,477.978 585.224,477.28 585.922,476.463 586.483,475.547 586.894,474.555 587.145,473.51 587.23,472.439"
       id="polyline22"
       style="stroke:#fe0000;stroke-width:0.687551;stroke-miterlimit:4;stroke-dasharray:none;stroke-opacity:1;" />
    <polyline
       fill="none"
       stroke="#0000ff"
       stroke-width="2"
       stroke-linecap="butt"
       stroke-linejoin="miter"
       points="621.464,472.439 621.38,471.368 621.129,470.323 620.718,469.33 620.157,468.414 619.459,467.597 618.642,466.899 617.726,466.338 616.733,465.927 615.688,465.676 614.617,465.592 613.546,465.676 612.502,465.927 611.509,466.338 610.593,466.899 609.776,467.597 609.078,468.414 608.517,469.33 608.106,470.323 607.855,471.368 607.77,472.439 607.855,473.51 608.106,474.555 608.517,475.547 609.078,476.463 609.776,477.28 610.593,477.978 611.509,478.539 612.502,478.951 613.546,479.201 614.617,479.286 615.688,479.201 616.733,478.951 617.726,478.539 618.642,477.978 619.459,477.28 620.157,476.463 620.718,475.547 621.129,474.555 621.38,473.51 621.464,472.439"
       id="polyline24"
       style="stroke:#fe0000;stroke-width:0.687551;stroke-miterlimit:4;stroke-dasharray:none;stroke-opacity:1;" />
    <polyline
       fill="none"
       stroke="#0000ff"
       stroke-width="2"
       stroke-linecap="butt"
       stroke-linejoin="miter"
       points="587.23,438.204 587.145,437.133 586.894,436.088 586.483,435.096 585.922,434.18 585.224,433.363 584.407,432.665 583.491,432.103 582.498,431.692 581.454,431.441 580.383,431.357 579.312,431.441 578.267,431.692 577.274,432.103 576.358,432.665 575.541,433.363 574.843,434.18 574.282,435.096 573.871,436.088 573.62,437.133 573.536,438.204 573.62,439.275 573.871,440.32 574.282,441.313 574.843,442.229 575.541,443.046 576.358,443.743 577.274,444.305 578.267,444.716 579.312,444.967 580.383,445.051 581.454,444.967 582.498,444.716 583.491,444.305 584.407,443.743 585.224,443.046 585.922,442.229 586.483,441.313 586.894,440.32 587.145,439.275 587.23,438.204"
       id="polyline26"
       style="stroke:#fe0000;stroke-width:0.687551;stroke-miterlimit:4;stroke-dasharray:none;stroke-opacity:1;" />
    <polyline
       fill="none"
       stroke="#0000ff"
       stroke-width="2"
       stroke-linecap="butt"
       stroke-linejoin="miter"
       points="621.464,438.204 621.38,437.133 621.129,436.088 620.718,435.096 620.157,434.18 619.459,433.363 618.642,432.665 617.726,432.103 616.733,431.692 615.688,431.441 614.617,431.357 613.546,431.441 612.502,431.692 611.509,432.103 610.593,432.665 609.776,433.363 609.078,434.18 608.517,435.096 608.106,436.088 607.855,437.133 607.77,438.204 607.855,439.275 608.106,440.32 608.517,441.313 609.078,442.229 609.776,443.046 610.593,443.743 611.509,444.305 612.502,444.716 613.546,444.967 614.617,445.051 615.688,444.967 616.733,444.716 617.726,444.305 618.642,443.743 619.459,443.046 620.157,442.229 620.718,441.313 621.129,440.32 621.38,439.275 621.464,438.204"
       id="polyline28"
       style="stroke:#fe0000;stroke-width:0.687551;stroke-miterlimit:4;stroke-dasharray:none;stroke-opacity:1;" />
    <polyline
       fill="none"
       stroke="#0000ff"
       stroke-width="2"
       stroke-linecap="butt"
       stroke-linejoin="miter"
       points="587.23,403.969 587.145,402.898 586.894,401.854 586.483,400.861 585.922,399.945 585.224,399.128 584.407,398.43 583.491,397.869 582.498,397.458 581.454,397.207 580.383,397.122 579.312,397.207 578.267,397.458 577.274,397.869 576.358,398.43 575.541,399.128 574.843,399.945 574.282,400.861 573.871,401.854 573.62,402.898 573.536,403.969 573.62,405.04 573.871,406.085 574.282,407.078 574.843,407.994 575.541,408.811 576.358,409.509 577.274,410.07 578.267,410.481 579.312,410.732 580.383,410.816 581.454,410.732 582.498,410.481 583.491,410.07 584.407,409.509 585.224,408.811 585.922,407.994 586.483,407.078 586.894,406.085 587.145,405.04 587.23,403.969"
       id="polyline30"
       style="stroke:#fe0000;stroke-width:0.687551;stroke-miterlimit:4;stroke-dasharray:none;stroke-opacity:1;" />
    <polyline
       fill="none"
       stroke="#0000ff"
       stroke-width="2"
       stroke-linecap="butt"
       stroke-linejoin="miter"
       points="621.464,403.969 621.38,402.898 621.129,401.854 620.718,400.861 620.157,399.945 619.459,399.128 618.642,398.43 617.726,397.869 616.733,397.458 615.688,397.207 614.617,397.122 613.546,397.207 612.502,397.458 611.509,397.869 610.593,398.43 609.776,399.128 609.078,399.945 608.517,400.861 608.106,401.854 607.855,402.898 607.77,403.969 607.855,405.04 608.106,406.085 608.517,407.078 609.078,407.994 609.776,408.811 610.593,409.509 611.509,410.07 612.502,410.481 613.546,410.732 614.617,410.816 615.688,410.732 616.733,410.481 617.726,410.07 618.642,409.509 619.459,408.811 620.157,407.994 620.718,407.078 621.129,406.085 621.38,405.04 621.464,403.969"
       id="polyline32"
       style="stroke:#fe0000;stroke-width:0.687551;stroke-miterlimit:4;stroke-dasharray:none;stroke-opacity:1;" />
    <polyline
       fill="none"
       stroke="#0000ff"
       stroke-width="2"
       stroke-linecap="butt"
       stroke-linejoin="miter"
       points="587.23,369.735 587.145,368.664 586.894,367.619 586.483,366.626 585.922,365.71 585.224,364.893 584.407,364.195 583.491,363.634 582.498,363.223 581.454,362.972 580.383,362.888 579.312,362.972 578.267,363.223 577.274,363.634 576.358,364.195 575.541,364.893 574.843,365.71 574.282,366.626 573.871,367.619 573.62,368.664 573.536,369.735 573.62,370.806 573.871,371.85 574.282,372.843 574.843,373.759 575.541,374.576 576.358,375.274 577.274,375.835 578.267,376.247 579.312,376.497 580.383,376.582 581.454,376.497 582.498,376.247 583.491,375.835 584.407,375.274 585.224,374.576 585.922,373.759 586.483,372.843 586.894,371.85 587.145,370.806 587.23,369.735"
       id="polyline34"
       style="stroke:#fe0000;stroke-width:0.687551;stroke-miterlimit:4;stroke-dasharray:none;stroke-opacity:1;" />
    <polyline
       fill="none"
       stroke="#0000ff"
       stroke-width="2"
       stroke-linecap="butt"
       stroke-linejoin="miter"
       points="621.464,369.735 621.38,368.664 621.129,367.619 620.718,366.626 620.157,365.71 619.459,364.893 618.642,364.195 617.726,363.634 616.733,363.223 615.688,362.972 614.617,362.888 613.546,362.972 612.502,363.223 611.509,363.634 610.593,364.195 609.776,364.893 609.078,365.71 608.517,366.626 608.106,367.619 607.855,368.664 607.77,369.735 607.855,370.806 608.106,371.85 608.517,372.843 609.078,373.759 609.776,374.576 610.593,375.274 611.509,375.835 612.502,376.247 613.546,376.497 614.617,376.582 615.688,376.497 616.733,376.247 617.726,375.835 618.642,375.274 619.459,374.576 620.157,373.759 620.718,372.843 621.129,371.85 621.38,370.806 621.464,369.735"
       id="polyline36"
       style="stroke:#fe0000;stroke-width:0.687551;stroke-miterlimit:4;stroke-dasharray:none;stroke-opacity:1;" />
    <polyline
       fill="none"
       stroke="#0000ff"
       stroke-width="2"
       stroke-linecap="butt"
       stroke-linejoin="miter"
       points="587.23,335.5 587.145,334.429 586.894,333.384 586.483,332.392 585.922,331.475 585.224,330.658 584.407,329.961 583.491,329.399 582.498,328.988 581.454,328.737 580.383,328.653 579.312,328.737 578.267,328.988 577.274,329.399 576.358,329.961 575.541,330.658 574.843,331.475 574.282,332.392 573.871,333.384 573.62,334.429 573.536,335.5 573.62,336.571 573.871,337.616 574.282,338.608 574.843,339.525 575.541,340.341 576.358,341.039 577.274,341.601 578.267,342.012 579.312,342.263 580.383,342.347 581.454,342.263 582.498,342.012 583.491,341.601 584.407,341.039 585.224,340.341 585.922,339.525 586.483,338.608 586.894,337.616 587.145,336.571 587.23,335.5"
       id="polyline38"
       style="stroke:#fe0000;stroke-width:0.687551;stroke-miterlimit:4;stroke-dasharray:none;stroke-opacity:1;" />
    <polyline
       fill="none"
       stroke="#0000ff"
       stroke-width="2"
       stroke-linecap="butt"
       stroke-linejoin="miter"
       points="621.464,335.5 621.38,334.429 621.129,333.384 620.718,332.392 620.157,331.475 619.459,330.658 618.642,329.961 617.726,329.399 616.733,328.988 615.688,328.737 614.617,328.653 613.546,328.737 612.502,328.988 611.509,329.399 610.593,329.961 609.776,330.658 609.078,331.475 608.517,332.392 608.106,333.384 607.855,334.429 607.77,335.5 607.855,336.571 608.106,337.616 608.517,338.608 609.078,339.525 609.776,340.341 610.593,341.039 611.509,341.601 612.502,342.012 613.546,342.263 614.617,342.347 615.688,342.263 616.733,342.012 617.726,341.601 618.642,341.039 619.459,340.341 620.157,339.525 620.718,338.608 621.129,337.616 621.38,336.571 621.464,335.5"
       id="polyline40"
       style="stroke:#fe0000;stroke-width:0.687551;stroke-miterlimit:4;stroke-dasharray:none;stroke-opacity:1;" />
  </g>
  <text
     xml:space="preserve"
     style="font-size:6px;line-height:1.25;font-family:sans-serif;white-space:pre;inline-size:35.6431;stroke-width:0.75"
     x="572.05438"
     y="170.56474"
     id="text875"
     transform="rotate(90,582.52408,163.26704)"><tspan
       x="572.05438"
       y="170.56474"><tspan
         style="font-style:normal;font-variant:normal;font-weight:normal;font-stretch:normal;font-size:6px;font-family:Nasalization;-inkscape-font-specification:Nasalization;stroke-width:0.75">Minotaure</tspan></tspan></text>
</svg>
